{
    "asset" : {
        "generator" : "Khronos glTF Blender I/O v0.9.36",
        "version" : "2.0"
    },
    "scene" : 0,
    "scenes" : [
        {
            "name" : "Scene",
            "nodes" : [
                0,
                1,
                2
            ]
        }
    ],
    "nodes" : [
        {
            "name" : "Empty",
            "rotation" : [
                0.7071068286895752,
                0,
                0,
                0.7071067094802856
            ],
            "translation" : [
                1.409999966621399,
                1.7400000095367432,
                0
            ]
        },
        {
            "name" : "Empty.001",
            "rotation" : [
                0.5,
                0.4999999701976776,
                -0.5000000596046448,
                0.4999999403953552
            ],
            "translation" : [
                1.409999966621399,
                1.7400000095367432,
                -0.17999999225139618
            ]
        },
        {
            "mesh" : 0,
            "name" : "Cube",
            "scale" : [
                0.32125556468963623,
                0.32125556468963623,
                0.32125556468963623
            ]
        }
    ],
    "meshes" : [
        {
            "name" : "Cube.001",
            "primitives" : [
                {
                    "attributes" : {
                        "POSITION" : 0,
                        "NORMAL" : 1,
                        "TEXCOORD_0" : 2
                    },
                    "indices" : 3
                }
            ]
        }
    ],
    "accessors" : [
        {
            "bufferView" : 0,
            "componentType" : 5126,
            "count" : 7648,
            "max" : [
                2.6601438522338867,
                10.733085632324219,
                1.5045719146728516
            ],
            "min" : [
                0,
                0.03566110506653786,
                -2.4168038368225098
            ],
            "type" : "VEC3"
        },
        {
            "bufferView" : 1,
            "componentType" : 5126,
            "count" : 7648,
            "type" : "VEC3"
        },
        {
            "bufferView" : 2,
            "componentType" : 5126,
            "count" : 7648,
            "type" : "VEC2"
        },
        {
            "bufferView" : 3,
            "componentType" : 5123,
            "count" : 11652,
            "type" : "SCALAR"
        }
    ],
    "bufferViews" : [
        {
            "buffer" : 0,
            "byteLength" : 91776,
            "byteOffset" : 0
        },
        {
            "buffer" : 0,
            "byteLength" : 91776,
            "byteOffset" : 91776
        },
        {
            "buffer" : 0,
            "byteLength" : 61184,
            "byteOffset" : 183552
        },
        {
            "buffer" : 0,
            "byteLength" : 23304,
            "byteOffset" : 244736
        }
    ],
    "buffers" : [
        {
            "byteLength" : 268040,
            "uri" : "personaje3D.bin"
        }
    ]
}
